<svg width="20px" height="20px" viewBox="0 0 24 24" xmlns="http://www.w3.org/2000/svg" fill="#778899"
                                stroke="#778899">
                                <g id="SVGRepo_bgCarrier" stroke-width="0"></g>
                                <g id="SVGRepo_tracerCarrier" stroke-linecap="round" stroke-linejoin="round"></g>
                                <g id="SVGRepo_iconCarrier">
                                    <path fill="none" d="m11 14 7-4-7-4z"></path>
                                    <path d="M4 8H2v12c0 1.103.897 2 2 2h12v-2H4V8z"></path>
                                    <path d="M20 2H8a2 2 0 0 0-2 2v12a2 2 0 0 0 2 2h12a2 2 0 0 0 2-2V4a2 2 0 0 0-2-2zm-9 12V6l7 4-7 4z"></path>
                                </g>
                            </svg>